<?xml version="1.0" encoding="UTF-8"?>
<svg id="Layer_1" data-name="Layer 1" xmlns="http://www.w3.org/2000/svg" viewBox="0 0 25.83 12.5">
  <defs>
    <style>
      .cls-1 {
        fill: #205876;
      }

      .cls-1, .cls-2, .cls-3, .cls-4 {
        stroke-width: 0px;
      }

      .cls-2 {
        fill: #dff2f7;
      }

      .cls-3 {
        fill: #cedfe3;
      }

      .cls-4 {
        fill: #2b7698;
      }
    </style>
  </defs>
  <path class="cls-1" d="M.05,11.47c-.1-2.34-.18-3.87,1.1-5.82.73-1.12,2.04-.39,3.16-1.12,1.25-.82,3.2-.24,4.58-.81,2.35-.97,4.78-.49,7.25-1.04,1.63-.36,3.67.67,5.34.69,2.02.02-.62.38,1.1,1.64.41.3.8.64,1.09,1.06.57.81-.6.25-.86,1.2-.7-.05-1.16-.45-1.87-.48-.66-.02-2.73.38-3.41.26-3.22-.04-2.04-.97-3.79-.6-1.25.26-2.76-.2-3.75.83-.14.15-.38-.07-.53-.02-1.81.56-4.15.1-5.43,1.54-.42.48-1.01.13-1.37.67-1.02,1.39-1.71,1.06-2.37,3.06"/>
  <path class="cls-4" d="M3.64,6.11c.43-.32.86-.64,1.36-.84-.51.23-1.01.46-1.52.7-.3.14-.61.28-.9.45-.39.22-.74.51-1.03.85-.2.23-.67.83-.56,1.15.43-.38.8-.84,1.24-1.22s.93-.73,1.41-1.09Z"/>
  <path class="cls-4" d="M16.03,6.36c1.01-.39,2.24-.41,3.42-.42.05-.07-.09-.13-.2-.15-1.63-.31-3.34.05-4.94.41-.22.05-.45.1-.58.23,1.01,0,2.02-.05,3.02-.13"/>
  <path class="cls-4" d="M11.29,6.37c.94-.54,2.16-.75,3.31-.94.04-.08-.11-.12-.22-.12-1.66-.06-3.3.56-4.82,1.16-.21.08-.43.17-.53.32,1-.16,1.99-.36,2.96-.59"/>
  <path class="cls-4" d="M4.94,7.4c1.08-.78,2.49-1.03,3.83-1.26.04-.11-.13-.18-.26-.2-1.94-.18-3.83.69-5.58,1.52-.24.11-.49.24-.61.46,1.16-.19,2.31-.44,3.44-.75"/>
  <path class="cls-4" d="M8.88,5.67c1.01-.4,2.24-.44,3.41-.47.05-.07-.09-.13-.2-.15-1.63-.29-3.34.1-4.93.48-.22.05-.45.11-.57.24,1.01-.02,2.02-.08,3.01-.18"/>
  <g>
    <path class="cls-2" d="M1.15,5.64c.1-.12.12-.23-.02-.32,1.19-.29,1.84-.93,2.57-2.07.13-.07.27-.14.4-.2.41-.17.84-.27,1.3-.22.77.07,1.52.54,2.27.36.59-.14,1-.66,1.48-1.04.84-.69,1.94-.99,3-1.27.67-.18,1.37-.36,2.07-.36,1.4,0,2.79.75,4.14.38.19-.05.4-.12.58-.03.1.05.17.15.29.18.17.05.34-.07.47-.18C20.25.41,20.91.03,21.64,0c.73-.03,1.5.4,1.69,1.09.06.21.07.45.24.58.2.17.51.08.77.06.16,0,.32.04.47.1.38.09.73.31.91.66.34.65-.15,1.61-.88,1.61.23.8.06,1.67-.3,2.41-.54,1.11-1.76,2.03-2.95,1.7-.11-.03-.21-.07-.3-.14-.13-.1-.21-.24-.31-.37-.51-.69-1.5-.98-2.3-.67-.34.12-.66.35-1.02.34-.64-.03-1.04-.75-1.65-.92-.3-.08-.63-.02-.91-.16-.38-.19-.5-.68-.51-1.11s.03-.88-.19-1.25c-.3-.5-.96-.63-1.54-.64-.63,0-1.33.13-1.67.65-.23.36-.23.81-.43,1.18-.19.38-.76.63-1.01.29-.09-.12-.1-.29-.16-.43-.1-.27-.36-.47-.65-.51.13.37-.29.74-.69.75-.4.01-.76-.19-1.13-.3-1-.3-2.09.03-2.96.6-.12.08-.25.18-.32.32-.07.16-.05.35-.03.52.03.34-.03.73-.29.95-.27.23-.76.16-.85-.17-.14.1-.29.21-.41.25q-.58.21-1.03.01c-.19-.05-.38-.16-.58-.26-.14-.07-.27-.14-.34-.19-.03.04-.06.06-.08.1-.05-.04-.1-.07-.15-.1,0-.01,0-.02,0-.03-.27-.47.76-.95,1.07-1.32Z"/>
    <path class="cls-3" d="M24.99,4.63c.04-.26-.11-.52-.32-.68s-.47-.23-.72-.3c-.69-.17-1.45-.29-2.07.05-.34.18-.59.49-.84.78-.24-.89-1.24-1.5-2.14-1.32.07-.27.3-.48.55-.6s.54-.16.81-.2c.82-.12,1.64-.24,2.45-.35.38-.05.76-.11,1.14-.06s.76.22.98.53c.33.46.24,1.1.13,1.66"/>
    <path class="cls-3" d="M19.47,1.17c.04.35-.18.69-.48.86s-.66.22-1.01.2c-.99-.05-1.96-.53-2.95-.41-.8.1-1.53.59-2.33.61-.4,0-.8-.11-1.2-.13-.48-.03-.97.06-1.41.28-.22.11-.5.25-.7.1-.14-.1-.16-.31-.09-.47s.2-.28.33-.38c.31-.24.65-.43,1.02-.57"/>
    <path class="cls-3" d="M4.87,3.77c-.37.08-.65.36-.95.6-.4.31-.86.55-1.35.69-.17-.32-.11-.72.08-1.03s.49-.53.8-.72c.68-.41,1.45-.67,2.24-.77.47-.06,2.07.18,1.34.95-.66.69-1.39.12-2.16.28Z"/>
    <path class="cls-3" d="M16.75,3.71c0-.16.15-.29.3-.31s.31.04.45.12c.42.25.73.76.73,1.25-.2-.62-.82-1.07-1.47-1.06Z"/>
  </g>
</svg>