<?xml version="1.0" encoding="UTF-8"?>
<svg id="Layer_1" data-name="Layer 1" xmlns="http://www.w3.org/2000/svg" viewBox="0 0 35.36 9.62">
  <defs>
    <style>
      .cls-1 {
        fill: #dff2f7;
      }

      .cls-1, .cls-2, .cls-3, .cls-4 {
        stroke-width: 0px;
      }

      .cls-2 {
        fill: #cedfe3;
      }

      .cls-3 {
        fill: #d3a8ce;
      }

      .cls-4 {
        fill: #d8c1d6;
      }
    </style>
  </defs>
  <path class="cls-3" d="M32.22,1.42c-2.15.28-1.4.64-3.25,1.13-1.29.34-1.96-.07-3.08.66-1.25.82-2.56,1.56-3.94,2.13-2.35.97-4.87,1.42-7.34,1.97-1.63.36-3.29.57-4.96.55-2.02-.02.62-.38-1.1-1.64-.41-.3-.8-.64-1.09-1.06-.57-.81.6-.25.86-1.2.7.05,1.16.45,1.87.48.66.02,1.78-.94,2.46-.83,3.22.04,2.65-.2,4.07-1.29,1.1-.84,2.53-1.04,3.86-.68.2.05.38.07.53.02,1.81-.56,3.45-1.16,5.36-1.4,2.03-.25,3.26.06,3.9-.11,1.67-.45,3.13-.01,5.04.76"/>
  <path class="cls-4" d="M26.14,2.62c-.52.13-1.04.26-1.58.25.56-.02,1.11-.04,1.67-.06.33-.01.67-.02,1-.07.44-.06.88-.18,1.28-.38.27-.14.93-.51.96-.84-.54.18-1.06.47-1.61.65s-1.14.32-1.72.46Z"/>
  <path class="cls-4" d="M14.04,4.39c-.92.57-2.13.82-3.28,1.05-.04.08.11.11.22.11,1.66,0,3.28-.67,4.78-1.32.2-.09.42-.19.52-.34-.99.19-1.97.42-2.94.69"/>
  <path class="cls-4" d="M18.7,3.51c-.83.7-1.98,1.14-3.08,1.54-.02.08.13.1.24.08,1.64-.25,3.14-1.16,4.52-2.03.19-.12.39-.25.47-.41-.95.34-1.89.72-2.8,1.13"/>
  <path class="cls-4" d="M24.88,1.44c-1.11.72-2.53.91-3.89,1.07-.05.11.12.19.25.21,1.93.27,3.86-.49,5.65-1.24.24-.1.5-.22.63-.43-1.17.13-2.33.32-3.47.58"/>
  <path class="cls-4" d="M21.19,3.74c-.92.58-2.12.85-3.26,1.1-.04.08.11.11.22.11,1.66-.02,3.27-.72,4.76-1.39.2-.09.42-.19.52-.34-.99.21-1.97.45-2.93.73"/>
  <path class="cls-1" d="M27.14,3.44c-.11.13-.13.25.02.35-1.31.31-2.02,1.03-2.82,2.27-.14.08-.29.16-.44.22-.46.19-.93.29-1.42.24-.85-.08-1.67-.6-2.49-.39-.65.16-1.1.73-1.62,1.15-.93.76-2.13,1.09-3.3,1.4-.74.2-1.5.4-2.27.39-1.54,0-3.07-.82-4.55-.41-.21.06-.44.14-.64.04-.11-.06-.19-.16-.31-.2-.19-.06-.37.08-.52.2-.62.51-1.35.93-2.14.95-.8.03-1.64-.43-1.86-1.2-.06-.23-.08-.49-.26-.64-.22-.19-.56-.09-.85-.07-.18,0-.36-.04-.52-.11-.42-.1-.8-.34-1-.73-.37-.72.16-1.77.97-1.77-.25-.88-.07-1.84.33-2.65C2.05,1.26,3.38.25,4.69.61c.12.04.23.08.33.15.14.11.23.26.34.41.56.75,1.64,1.08,2.53.73.37-.14.73-.38,1.12-.37.7.03,1.14.83,1.82,1.01.33.09.7.02,1,.17.42.21.55.75.56,1.22s-.04.97.21,1.37c.33.55,1.05.7,1.69.7.69,0,1.47-.14,1.84-.72.25-.39.26-.89.47-1.3.21-.41.83-.69,1.11-.32.1.14.11.31.17.47.11.29.4.51.71.56-.14-.41.32-.81.75-.82.43-.01.83.21,1.25.33,1.1.33,2.3-.03,3.25-.66.14-.09.28-.2.35-.35.08-.18.05-.38.03-.58-.03-.38.04-.8.32-1.05.29-.25.84-.18.93.19.16-.11.31-.23.46-.28q.64-.23,1.13-.01c.21.06.42.17.63.28.15.08.29.16.38.21.04-.04.06-.07.09-.11.06.04.11.08.16.11,0,.01,0,.02,0,.03.29.52-.84,1.05-1.17,1.45Z"/>
  <path class="cls-2" d="M.94,4.56c-.05.28.12.57.35.75s.52.26.8.33c.75.19,1.59.32,2.28-.06.37-.2.65-.53.92-.86.27.98,1.36,1.65,2.35,1.45-.08.3-.32.53-.6.66s-.59.18-.89.22c-.9.13-1.8.26-2.7.39-.42.06-.84.12-1.25.07s-.83-.24-1.08-.58c-.37-.51-.26-1.2-.15-1.82"/>
  <path class="cls-2" d="M7.01,8.36c-.05-.38.2-.75.52-.95s.73-.24,1.11-.22c1.09.06,2.15.59,3.24.45.88-.11,1.68-.65,2.56-.67.44,0,.88.12,1.32.15.53.04,1.07-.07,1.55-.3.25-.12.55-.27.77-.1.15.11.18.34.1.51s-.22.31-.36.42c-.34.26-.72.48-1.12.63"/>
  <path class="cls-2" d="M23.06,5.5c.41-.09.72-.4,1.04-.66.44-.35.95-.6,1.49-.76.19.35.12.8-.09,1.13s-.54.58-.88.79c-.75.45-1.59.74-2.46.84-.52.06-2.27-.2-1.47-1.04.73-.76,1.52-.13,2.37-.31Z"/>
  <path class="cls-2" d="M9.99,5.57c0,.17-.16.31-.33.34s-.34-.04-.49-.13c-.47-.28-.81-.83-.8-1.38.22.68.91,1.18,1.62,1.17Z"/>
</svg>