<?xml version="1.0" encoding="UTF-8"?>
<svg xmlns="http://www.w3.org/2000/svg" xmlns:xlink="http://www.w3.org/1999/xlink" viewBox="0 0 147.16 23.69">
  <defs>
    <style>
      .cls-1 {
        isolation: isolate;
      }

      .cls-2 {
        mix-blend-mode: soft-light;
      }

      .cls-3 {
        fill: none;
      }

      .cls-3, .cls-4, .cls-5 {
        stroke-width: 0px;
      }

      .cls-4 {
        fill: #b9d6e2;
      }

      .cls-5 {
        fill: #88c6e1;
      }

      .cls-6 {
        clip-path: url(#clippath);
      }
    </style>
    <clipPath id="clippath">
      <rect class="cls-3" x="0" y="0" width="146.46" height="23.69"/>
    </clipPath>
  </defs>
  <g class="cls-1">
    <g id="Layer_1" data-name="Layer 1">
      <g class="cls-2">
        <g class="cls-6">
          <path class="cls-5" d="M64.8-5.72c-.18-.36-.35-.73-.51-1.1-1.33-.27-2.71-.47-4.14-.55L4.75-10.72c-8.06-.49-14.3,2.33-13.85,6.26l3.06,26.98c.45,3.93,7.41,7.54,15.47,8.02l54.99,3.32c.63-3.64,2.29-7.35,4.5-10.59-.31-1.23-.55-2.46-.68-3.71-.21.31-.48.61-.82.88-1.42,1.16-4.48,1.88-7.44,1.29-.5-.1-1-.24-1.41-.44-.42-.2-.72-.46-.98-.72-.57-.57-.97-1.17-1.31-1.76-.68-1.21-1.15-2.43-1.38-3.65-.25-1.3-.3-2.69-1.9-3.85-.46-.33-1.04-.65-1.24-1.02-.18-.34,0-.66.18-.97.3-.51.55-1.04.77-1.57.12-.27.14-1.32.56-1.45.47-.16,2.43.14,3.09.18,1.18.08,2.36.16,3.54.24,1.39.09,2.85.2,4.09.62,1.28.44,2.08,1.13,2.68,1.81.81.92,1.34,1.85,1.69,2.8.33-2.26.91-4.51,1.7-6.7.11-.31.24-.6.36-.9,0-.04.02-.08.02-.13-.31-.34-.62-.68-.91-1.02-2.26-2.61-3.8-5.68-4.76-8.93ZM9.5-3.56c.14-.32.63-.55.94-.82.43-.37.55-.84,1-1.2.45-.35,1.19-.59,1.91-.8,2.2-.65,4.54-1.23,7.13-1.51,2.6-.28,5.5-.26,8.23.26,1.6.31,3.11.78,4.57,1.25,2.64.86,5.22,1.77,7.74,2.73.55.21,1.1.42,1.57.69.55.3.94.66,1.32,1.02,1.05.99,2,1.99,2.85,3.01.48.57.92,1.17,1.7,1.69.42.28,1.64.77.92,1.08-1.12.49-4.34-1.2-5.05-1.64-1.65-1.03-2.9-.67-4.62-1.67-2.29-1.33-4.57-1.72-7.76-2.38-3.37-.69-7-1.15-10.28-.88-.92.08-1.82.22-2.44.52-.98.49-1.85-.76-2.66-.2-.99.68-3.09.89-4.89.48-1.3-.3-2.47-1.01-2.18-1.63ZM49.38,9.28c-.08.79-.87,1.5-2.13,1.92-1.26.41-2.99.52-4.63.29-1.96-.27-3.69-.98-5.33-1.65-.37-.15-.74-.31-.98-.5-.21-.17-.3-.36-.37-.54-.51-1.17-.62-2.39-1.91-3.47-1.06-.89-2.79-1.56-4.59-2.09-1.81-.52-3.72-.9-5.55-1.39-1.37-.36-2.73-.8-3.64-1.43-.9-.62-1.21-1.48-.38-1.98.9-.54,2.68-.5,4.24-.41,3.62.2,7.42.42,10.72,1.44,2.5.77,4.47,1.92,6.52,2.99,1.57.82,3.3,1.62,5.31,2.14.69.18,1.64.25,2.19.54.66.33.76.96.74,1.34-.04.49-.28.97-.3,1.46-.02.44.15.9.11,1.35ZM3.53,6.45c-.09-.15-.07-.3-.05-.45.25-1.24,1.11-2.4,1.06-3.67-.02-.59-.24-1.2-.24-1.8-.01-.6.22-1.2.99-1.6.79-.41,2.08-.55,3.35-.5,1.27.05,2.54.28,3.78.53,2.66.53,5.35,1.19,7.45,2.22,1.15.57,2.09,1.23,3.31,1.75,2.67,1.15,6.15,1.56,8.85,2.69,3.03,1.27,1.44,2.33.18,3.59-1.23,1.23-2.46,2.46-3.69,3.69-.44.44-.88.88-1.51,1.25-2.25,1.34-6.76,1.52-10.45.59-1.26-.31-2.42-.74-3.58-1.16-1.42-.52-2.86-1.05-3.92-1.75-2.2-1.46-2.31-3.39-4.68-4.79-.32-.19-.7-.39-.84-.61ZM25.68,19.68c.05.53.17,1.06.34,1.59.28.83.64,1.8-.48,2.31-.62.28-1.57.36-2.5.29-.93-.07-1.85-.25-2.74-.45-3.98-.88-7.83-1.97-11.48-3.24-.34-.12-.69-.24-.99-.39-.44-.23-.75-.51-1.03-.79-.78-.74-1.58-1.49-1.84-2.27-.17-.48-.08-1.01.64-1.27.31-.11.7-.16,1.09-.2,3.42-.32,7.21.21,10.86.63,3.12.36,5.77.4,8.76.31,3.2-.1,1.73,1.37.61,2.03-.43.25-.96.48-1.14.8-.13.2-.11.42-.09.64ZM36.9,28.73c-.55.23-1.23.44-2.03.38-.85-.06-1.57-.4-2.19-.72-3.22-1.7-5.67-3.91-5.43-5.99.01-.12.04-.25.21-.34.23-.12.69-.1,1.04,0,.35.1.62.26.89.41,2.66,1.46,5.6,2.12,9,2.92,3.58.84.03,2.71-1.47,3.35ZM58.28,22.95c1.2-.28,2.68-.18,4.07-.11,1.09.06,2.58,0,3.65.26,2.33.58-1.16,2.2-2.08,2.61-1.17.51-2.57.91-3.58,1.5-.69.4-1.19.88-1.86,1.3-1.66,1.03-4.38,1.62-7.3,1.57-2.93-.05-6.02-.73-8.32-1.82,2.29-.2,4.59-.39,6.69-.8,2.1-.41,4.01-1.03,5.16-1.97,1.12-.89,1.62-2.08,3.57-2.53ZM52.5,13.01c.51.89.73,1.82,1.13,2.72.38.83.78,1.65,1.03,2.48.5,1.78.18,3.54-.95,5.11-.8,1.12-2.15,2.19-4.45,2.56-1.19.19-2.54.18-3.88.12-1.33-.06-2.68-.17-3.99-.4-1.52-.27-2.96-.71-4.33-1.17-2.13-.71-4.18-1.49-6.12-2.33-.85-.37-1.71-.76-2.33-1.23-.62-.47-.98-1.02-.76-1.5.41-.91,2.56-1.18,3.96-1.75.69-.28,1.19-.64,1.71-.99.53-.38,1.07-.77,1.19-1.25.08-.32-.05-.65-.18-.98-.25-.62-.55-1.23-.91-1.84-.34-.6-.72-1.27-.15-1.74.66-.55,2.36-.58,3.74-.29,1.38.28,2.57.79,3.83,1.21,1.75.58,3.71,1,5.67,1.21,2.07.23,3.83,0,5.79.07ZM64.85,5.3c-.68.36-1.83.44-2.91.47-1.69.05-3.42,0-5.16-.11-2-.14-4.25-.47-5.5-1.33-.5-.35-.79-.75-1.05-1.14-.94-1.38-1.79-2.85-3.67-4.09-.74-.49-1.39-.78-.24-1.1,1.03-.28,2.51-.24,3.75-.09,1.4.16,2.75.49,4.07.84,3.47.92,6.88,2.04,9.41,3.56.76.46,1.45.96,1.76,1.5.33.54.22,1.13-.47,1.49Z"/>
          <path class="cls-4" d="M77.88-7.94c-.23-.46-.44-.93-.64-1.41-1.31-.23-2.66-.4-4.05-.49L7.67-13.79c-9.54-.57-16.91,2.76-16.38,7.4l3.62,31.92c.53,4.64,8.76,8.92,18.3,9.49l64.24,3.87c.75-4.31,2.71-8.69,5.32-12.52-.57-2.24-.9-4.51-.99-6.79-.36.25-.74.5-1.24.7-.63.26-1.43.41-2.21.56-2.2.41-4.45.75-6.76,1.04-1.3.16-2.68.3-3.78.64-.59.19-1.54.8-2.46.31-1.44-.77,2.01-2.3,2.94-2.63,2.17-.75,1.03-1.56,3.11-2.37,2.77-1.07,3.24-2.33,4.18-4.06.99-1.84,1.32-3.88-.04-5.87-.39-.56-.92-1.12-1.8-1.55-1.4-.68,1.48-.93-.07-1.53-1.89-.73-2.84-2.01-2.21-2.98.46-.7,1.96-1.24,3.53-.94.81.15,1.47.49,2.2.73,1.01.33,2.18.5,3.16.84.96.34,1.69.82,2.37,1.29.53.37,1.03.74,1.53,1.12.13-.34.26-.68.4-1.01,0-.01,0-.02,0-.03-.38-.41-.75-.82-1.1-1.23-2.67-3.1-4.5-6.72-5.63-10.58ZM31.52,1.18c.5-.68,1.3-1.27,2.09-1.86.97-.72,1.96-1.46,3.45-1.94,3.11-.99,7.81-.64,10.75-1.74.41-.15.8-.33,1.32-.37.35-.02.73.02,1.09.07,3.09.41,6.11,1.16,9.22,1.41,1.45.11,2.9.12,4.36.24,1.46.12,2.99.39,4.13.92,1.18.55,1.79,1.34,1.94,2.08.14.74-.15,1.44-.49,2.12-.73,1.46-1.78,2.9-3.86,3.91-1.14.56-2.57.97-3.59,1.58-2.26,1.33-2.51,3.29-4.72,4.64-2.46,1.51-5.4.35-8.76-.66-3.28-.99-6.56-1.97-9.84-2.96-1.17-.35-2.36-.71-3.4-1.16-3.76-1.61-5.16-4.3-3.68-6.28ZM33.9,11.73c.79.11,1.59.11,2.37.1,1.46-.02,2.89-.06,4.32-.14,1.4-.07,2.95-.15,4.24.28,1.49.51,1.92,1.51,1.52,2.26-.39.75-1.4,1.34-2.16,2-1.06.91-1.65,1.97-1.75,3.08-.11,1.17.82,2.26,1.05,3.39-2.07.11-4.31.04-6.43.09-1.95.05-3.88.11-5.86.08-4.26-.08-8.65-.65-12.74-1.65-2.91-.71-5.84-1.73-7.23-3.17-.72-.74-.98-1.54-1.11-2.31-.13-.77-.16-1.54.12-2.26.34-.84,1.1-1.59,1.95-2.3,1.29-1.1,2.77-2.14,4.42-3.11.73-.42,1.51-.84,2.52-1.11,1.02-.26,2.3-.36,3.52-.13,2.31.43,3.45,1.76,5.14,2.71.82.46,1.81.84,2.79,1.22,1.04.39,2.11.8,3.31.97ZM11.1,1.54c1.32-2.15,3.16-4.19,5.49-6.07.23-.18.45-.35.76-.5.47-.21,1.09-.33,1.71-.44,1.64-.3,3.32-.61,5.17-.6,1.14,0,2.45.17,3.24.65.34.2.54.45.72.68,1.52,2.09,1.02,4.2.77,6.26-.22,1.76.24,3.31,1.11,5.09.93,1.91-3,.73-4.86-.08-.7-.31-1.37-.66-2.22-.85-.52-.12-1.06-.16-1.59-.19-1.28-.08-2.57-.13-3.83-.14-1.98-.01-4.27,0-5.78-.78-.83-.42-1.21-1-1.23-1.54-.04-.53.23-1.03.53-1.52ZM.23,8.91c-.03-.49.64-.84,1.31-1.14,3.48-1.53,8.38-2.5,13.54-1.92.31.03.63.08.88.19.34.16.38.43.21.61-.17.19-.5.31-.81.43-3.01,1.26-4.02,2.84-5.25,4.68-1.29,1.93-6.63-.56-8.52-1.58-.69-.37-1.34-.82-1.36-1.28ZM21.61,28.52c-.93,1.25-5.65-1.15-6.84-1.78-1.51-.8-2.78-1.71-4.44-2.43-1.13-.49-2.41-.89-3.58-1.37-2.89-1.2-4.91-2.93-5.41-4.63-.51-1.71.5-3.39,2.7-4.51.97,1.39,1.95,2.79,3.39,4.11,1.44,1.33,3.39,2.58,5.93,3.46,2.42.85,5.46,1.4,6.96,2.64.93.77,1.02,1.62,1.14,2.42.09.63.57,1.52.15,2.1ZM59.82,30.72c-.8.66-2.33.98-3.88,1.19-5.27.71-11.25.37-17.05-.15-3.58-.32-7.31-.73-10.48-1.83-3.16-1.09-5.58-3.04-4.76-4.65.15-.27.39-.54.78-.74.41-.2.98-.33,1.56-.42,1.28-.22,2.65-.32,4.05-.4,2.82-.15,5.73-.16,8.65-.03,3.14.13,6.53.4,9.04-.3.71-.2,1.36-.48,2.23-.51.79-.03,1.62.15,2.42.31,1.33.29,2.66.55,4.02.79.69.13,3.27.37,3.69.64.48.31.18,1.4.21,1.78.07.68.12,1.35.18,2.04.07.8.12,1.64-.65,2.28ZM67.07,23.48c3.19-.26,6.62-.44,9.26-1.29,1.04-.33,1.62-.65,2.64.09.9.67,1.12,1.53,1.02,2.23-.1.79-.62,1.52-1.19,2.22-1.51,1.85-3.53,3.62-6.72,4.78-.96.35-2.05.65-3.31.72-1.26.08-2.73-.11-3.76-.6-1.04-.48-1.47-1.17-1.78-1.81-.48-1.01-.75-2.02-.82-3.02-.09-1.15.25-2.4,2.09-2.95.74-.22,1.67-.31,2.57-.38ZM72.27,6.6c1.52.65,1.79,1.68,1.91,2.59.29,2.09.54,4.28-1.25,6-1.36,1.31-3.76,2.22-5.94,3.2-1.67.75-3.28,1.6-4.11,2.67-.29.37-.26.91-.85,1.18-.68.32-2.18.24-3.13.15-1.22-.13-2.43-.37-3.65-.49-1.09-.1-2.19-.1-3.28-.23-1.97-.22-3.88-.83-5.15-1.66s-1.91-1.87-1.7-2.79c.25-1.1,1.61-1.97,2.92-2.79.29-.18.59-.37,1.03-.47.37-.09.81-.1,1.25-.1,2.76-.05,5.73.14,8.1-.39,1.95-.44,3.24-1.31,4.14-2.26.88-.96,1.42-2,2.22-2.97.6-.73,1.38-1.44,2.73-1.84,1.34-.4,3.37-.4,4.77.2Z"/>
          <path class="cls-5" d="M73.1.88c-.33.38-.67.77-1.03,1.15,0,.05.02.1.02.14.14.34.28.67.4,1.01.89,2.47,1.54,5,1.91,7.55.4-1.06.99-2.12,1.9-3.15.67-.77,1.58-1.55,3.01-2.04,1.39-.47,3.04-.59,4.6-.7,1.34-.09,2.66-.18,3.99-.27.75-.05,2.95-.38,3.48-.2.47.15.5,1.33.63,1.64.25.6.53,1.19.87,1.77.19.35.41.71.2,1.09-.22.42-.87.77-1.39,1.14-1.8,1.31-1.85,2.87-2.14,4.33-.25,1.36-.78,2.75-1.55,4.11-.38.67-.83,1.34-1.48,1.99-.29.29-.63.58-1.1.81-.46.22-1.02.38-1.58.49-3.32.67-6.77-.15-8.37-1.45-.38-.31-.68-.65-.92-1-.16,1.4-.42,2.79-.77,4.17,2.49,3.65,4.35,7.82,5.06,11.92l61.9-3.73c9.07-.55,16.91-4.61,17.41-9.03l3.44-30.37c.5-4.42-6.52-7.59-15.59-7.05l-62.36,3.76c-1.61.1-3.16.32-4.66.62-.18.42-.37.83-.57,1.24-1.08,3.66-2.81,7.11-5.35,10.05ZM138.25-4.9c-2.03.46-4.39.23-5.5-.54-.92-.63-1.89.78-3,.23-.69-.35-1.72-.5-2.75-.59-3.69-.3-7.78.21-11.58.99-3.59.74-6.15,1.18-8.73,2.68-1.94,1.13-3.34.72-5.2,1.88-.8.49-4.42,2.39-5.69,1.84-.81-.35.57-.91,1.04-1.22.87-.58,1.37-1.26,1.91-1.9.96-1.14,2.03-2.27,3.21-3.38.43-.4.87-.8,1.49-1.14.52-.3,1.14-.54,1.76-.77,2.84-1.08,5.74-2.1,8.71-3.07,1.65-.54,3.35-1.07,5.15-1.41,3.08-.59,6.34-.61,9.27-.3,2.91.32,5.55.97,8.02,1.7.81.24,1.64.5,2.15.9.51.41.64.93,1.12,1.35.36.3.9.56,1.06.92.32.69-1,1.5-2.46,1.83ZM95.93,6.2c-.02-.56-.29-1.09-.33-1.64-.03-.43.09-1.13.83-1.51.62-.32,1.69-.4,2.47-.6,2.26-.58,4.2-1.49,5.97-2.41,2.3-1.2,4.52-2.5,7.33-3.36,3.71-1.14,7.98-1.4,12.06-1.62,1.76-.1,3.76-.15,4.78.46.94.56.59,1.53-.42,2.23-1.02.71-2.56,1.2-4.1,1.61-2.06.54-4.21.98-6.25,1.56-2.03.59-3.97,1.35-5.17,2.35-1.45,1.21-1.58,2.59-2.15,3.9-.09.21-.19.42-.42.61-.27.22-.69.4-1.1.57-1.84.76-3.78,1.55-6,1.86-1.85.26-3.79.14-5.22-.33-1.42-.46-2.31-1.26-2.4-2.16-.05-.5.14-1.02.12-1.52ZM146.47,5.22c-2.67,1.58-2.79,3.75-5.27,5.39-1.19.79-2.82,1.38-4.42,1.97-1.31.48-2.61.95-4.03,1.31-4.15,1.04-9.22.84-11.76-.67-.71-.42-1.2-.92-1.7-1.41-1.39-1.38-2.77-2.77-4.16-4.15-1.42-1.42-3.21-2.61.2-4.04,3.04-1.28,6.96-1.73,9.96-3.03,1.37-.59,2.43-1.34,3.73-1.97,2.36-1.16,5.39-1.91,8.38-2.5,1.4-.28,2.83-.53,4.26-.59,1.43-.06,2.88.1,3.77.56.86.45,1.12,1.13,1.11,1.8,0,.67-.25,1.35-.27,2.02-.05,1.43.92,2.73,1.2,4.13.02.16.05.33-.06.5-.16.25-.58.47-.95.69ZM122.39,18.69c-.21-.37-.8-.62-1.29-.9-1.26-.75-2.92-2.4.68-2.29,3.36.11,6.35.06,9.86-.35,4.11-.48,8.37-1.07,12.22-.71.44.05.88.1,1.23.23.81.29.91.89.72,1.42-.29.88-1.19,1.73-2.07,2.55-.32.31-.67.63-1.16.89-.34.17-.72.31-1.11.44-4.1,1.43-8.44,2.65-12.92,3.64-1,.23-2.03.44-3.08.51-1.05.08-2.12,0-2.82-.32-1.26-.58-.86-1.67-.54-2.6.19-.6.33-1.2.38-1.79.03-.25.05-.5-.1-.72ZM108.21,25.84c3.83-.9,7.13-1.64,10.13-3.29.29-.17.6-.35,1-.46.39-.11.91-.14,1.17,0,.19.1.22.25.23.38.27,2.34-2.49,4.83-6.11,6.74-.7.37-1.52.75-2.47.82-.9.07-1.67-.16-2.29-.43-1.69-.72-5.69-2.83-1.65-3.77ZM89.82,25.95c1.29,1.05,3.44,1.76,5.81,2.21,2.36.46,4.95.68,7.53.9-2.58,1.24-6.06,2-9.36,2.05-3.29.05-6.35-.6-8.22-1.77-.75-.47-1.32-1.01-2.1-1.46-1.15-.66-2.72-1.11-4.03-1.69-1.04-.45-4.96-2.28-2.34-2.93,1.2-.3,2.88-.23,4.11-.29,1.57-.08,3.23-.18,4.58.13,2.19.5,2.76,1.84,4.02,2.84ZM98.82,11.83c2.21-.24,4.41-.7,6.38-1.36,1.42-.47,2.76-1.05,4.32-1.37,1.55-.32,3.46-.29,4.21.33.64.54.22,1.28-.17,1.96-.4.69-.74,1.38-1.02,2.07-.15.37-.29.75-.2,1.1.13.54.74.98,1.34,1.4.58.4,1.15.8,1.92,1.11,1.57.64,4,.95,4.46,1.97.25.54-.16,1.16-.86,1.69-.7.52-1.66.96-2.62,1.38-2.19.95-4.5,1.83-6.89,2.63-1.55.52-3.16,1.01-4.87,1.32-1.47.26-2.99.38-4.49.45-1.5.07-3.02.08-4.37-.13-2.6-.41-4.11-1.62-5.01-2.88-1.26-1.76-1.63-3.75-1.07-5.75.28-.93.73-1.86,1.15-2.79.45-1.01.7-2.06,1.27-3.06,2.21-.09,4.18.17,6.52-.08ZM77.86,1.56c.36-.61,1.13-1.17,1.99-1.69,2.85-1.71,6.68-2.97,10.59-4,1.49-.39,3.02-.76,4.59-.94,1.4-.17,3.06-.21,4.22.1,1.3.36.57.68-.27,1.24-2.12,1.39-3.07,3.05-4.13,4.61-.29.44-.62.89-1.19,1.28-1.4.96-3.94,1.34-6.19,1.49-1.96.14-3.91.18-5.81.13-1.22-.04-2.5-.12-3.27-.53-.78-.4-.9-1.07-.53-1.68Z"/>
          <path class="cls-4" d="M62.71,1.1c-.34.39-.69.78-1.05,1.17,0,.01,0,.02,0,.03.13.32.26.64.38.96.47-.36.95-.71,1.46-1.06.65-.45,1.33-.91,2.25-1.23.94-.33,2.05-.49,3.01-.8.7-.23,1.33-.55,2.1-.69,1.5-.29,2.92.23,3.36.89.6.93-.31,2.14-2.1,2.84-1.48.57,1.27.8-.07,1.45-.84.41-1.35.94-1.72,1.47-1.3,1.89-.98,3.84-.04,5.59.9,1.65,1.34,2.85,3.98,3.86,1.98.76.9,1.53,2.96,2.25.88.31,4.16,1.77,2.79,2.5-.88.47-1.78-.12-2.34-.3-1.05-.33-2.36-.46-3.59-.61-2.2-.27-4.35-.6-6.44-.99-.75-.14-1.51-.29-2.1-.53-.47-.19-.83-.43-1.18-.67-.08,2.17-.4,4.32-.94,6.46,2.49,3.65,4.35,7.82,5.06,11.92l61.13-3.69c9.07-.55,13.2-6.02,13.71-10.44l-.69-7.23c-.26-2.75.48-5.5,2.09-7.73l1.19-1.65c.5-4.42-1.96-19.93-11.03-19.39l-62.35,3.76c-1.32.08-2.6.24-3.85.46-.19.45-.4.9-.61,1.34-1.08,3.67-2.82,7.12-5.36,10.06ZM108.69,5.69c-.99.43-2.12.76-3.23,1.1-3.12.94-6.24,1.88-9.36,2.82-3.2.96-6,2.07-8.34.63-2.1-1.28-2.34-3.15-4.49-4.41-.97-.58-2.33-.97-3.42-1.5-1.98-.97-2.98-2.34-3.67-3.72-.32-.65-.59-1.31-.46-2.01.14-.7.73-1.45,1.85-1.98,1.09-.51,2.54-.76,3.93-.88,1.38-.12,2.76-.12,4.14-.23,2.96-.24,5.83-.95,8.77-1.34.34-.04.7-.08,1.04-.06.5.03.87.21,1.26.35,2.79,1.05,7.26.71,10.22,1.65,1.41.45,2.36,1.16,3.28,1.84.75.56,1.51,1.13,1.99,1.77,1.41,1.88.08,4.44-3.5,5.98ZM113.08,8.83c.93-.36,1.88-.72,2.66-1.16,1.61-.9,2.69-2.16,4.89-2.57,1.16-.22,2.38-.13,3.35.12.96.25,1.7.65,2.4,1.05,1.57.92,2.98,1.91,4.21,2.96.8.68,1.53,1.39,1.85,2.19.27.69.24,1.42.12,2.15-.13.74-.37,1.49-1.06,2.2-1.32,1.37-4.11,2.34-6.88,3.02-3.89.95-8.07,1.49-12.12,1.57-1.88.03-3.72-.03-5.57-.07-2.01-.04-4.14.02-6.12-.08.22-1.08,1.11-2.11,1-3.23-.09-1.06-.66-2.07-1.66-2.93-.73-.62-1.68-1.19-2.06-1.9-.39-.72.03-1.67,1.44-2.15,1.23-.42,2.7-.34,4.03-.27,1.36.07,2.72.12,4.11.13.74,0,1.5,0,2.25-.1,1.14-.16,2.16-.54,3.15-.92ZM132.12,1.49c-.03.51-.39,1.06-1.17,1.46-1.43.73-3.62.73-5.5.74-1.2.01-2.43.05-3.64.13-.51.03-1.03.07-1.52.18-.81.17-1.44.51-2.11.8-1.77.76-5.51,1.89-4.63.07.83-1.69,1.27-3.17,1.06-4.85-.24-1.96-.72-3.97.73-5.96.17-.23.37-.46.69-.65.75-.45,2-.61,3.08-.62,1.76-.01,3.36.28,4.92.57.59.1,1.19.22,1.63.42.29.14.51.31.72.47,2.22,1.78,3.97,3.73,5.23,5.77.29.46.54.93.51,1.44ZM140.66,8.28c-1.8.97-6.89,3.34-8.11,1.5-1.17-1.74-2.13-3.25-4.99-4.45-.29-.12-.61-.24-.77-.41-.16-.18-.12-.43.2-.58.24-.11.55-.15.84-.18,4.9-.55,9.56.37,12.88,1.83.64.28,1.28.62,1.25,1.08-.02.44-.64.86-1.29,1.22ZM121.76,23.73c.12-.77.2-1.57,1.09-2.3,1.43-1.18,4.32-1.71,6.62-2.51,2.41-.83,4.26-2.03,5.64-3.29,1.37-1.26,2.3-2.59,3.22-3.91,2.1,1.06,3.05,2.66,2.57,4.29-.48,1.63-2.4,3.27-5.15,4.41-1.11.46-2.33.84-3.41,1.31-1.57.69-2.79,1.55-4.22,2.31-1.13.6-5.62,2.88-6.51,1.7-.41-.54.05-1.39.14-1.99ZM84.65,25.65c.05-.65.1-1.29.17-1.94.03-.36-.26-1.4.2-1.7.4-.26,2.85-.49,3.51-.61,1.29-.23,2.56-.48,3.82-.75.76-.16,1.56-.33,2.31-.3.82.03,1.44.3,2.12.49,2.39.66,5.61.41,8.6.28,2.78-.12,5.55-.11,8.23.03,1.33.07,2.63.17,3.85.38.55.09,1.09.21,1.48.4.37.19.6.44.74.7.78,1.53-1.52,3.4-4.53,4.43-3.02,1.04-6.56,1.43-9.97,1.74-5.52.49-11.21.83-16.22.15-1.47-.2-2.94-.51-3.69-1.13-.73-.61-.68-1.41-.61-2.17ZM80.8,21.29c1.74.53,2.07,1.72,1.98,2.81-.07.95-.32,1.91-.78,2.87-.29.61-.71,1.27-1.69,1.73-.98.46-2.38.64-3.58.57-1.2-.07-2.23-.35-3.15-.68-3.04-1.11-4.96-2.79-6.39-4.55-.54-.67-1.03-1.36-1.13-2.11-.09-.67.12-1.49.97-2.12.97-.71,1.52-.41,2.52-.09,2.51.81,5.77.98,8.81,1.23.85.07,1.73.15,2.44.36ZM77.96,4.68c1.28.38,2.02,1.06,2.59,1.75.75.93,1.27,1.92,2.11,2.83.85.9,2.09,1.74,3.94,2.15,2.26.51,5.08.32,7.71.37.41,0,.84.02,1.19.1.41.09.7.27.98.45,1.25.78,2.54,1.6,2.78,2.65.2.88-.4,1.86-1.62,2.66s-3.03,1.38-4.9,1.58c-1.04.11-2.08.12-3.12.21-1.16.11-2.31.34-3.47.46-.9.09-2.33.16-2.98-.14-.56-.25-.53-.77-.81-1.12-.8-1.02-2.33-1.82-3.92-2.54-2.07-.93-4.36-1.8-5.65-3.05-1.7-1.64-1.47-3.72-1.19-5.71.12-.86.37-1.85,1.82-2.46,1.34-.57,3.27-.57,4.54-.19Z"/>
        </g>
      </g>
    </g>
  </g>
</svg>