<svg xmlns="http://www.w3.org/2000/svg" viewBox="0 0 30.17 16.8"><defs><style>.cls-1{fill:#6f7abb;}.cls-2{fill:#97a0d0;}.cls-3{fill:#dff2f7;}.cls-4{fill:#cedfe3;}</style></defs><g id="Layer_2" data-name="Layer 2"><g id="Layer_1-2" data-name="Layer 1"><path class="cls-1" d="M30.15,1a11.16,11.16,0,0,1-1.35,6.7,9.72,9.72,0,0,1-3,2.67,23.79,23.79,0,0,1-3.94,2.13,43.9,43.9,0,0,1-7.34,2,21.72,21.72,0,0,1-5,.56c-2,0,.62-.39-1.11-1.64a4.77,4.77,0,0,1-1.09-1.06c-.57-.8.6-.24.86-1.2.7.05,1.16.45,1.87.48s1.78-.94,2.46-.82c3.22,0,2.66-.2,4.07-1.29a4.44,4.44,0,0,1,3.87-.68,1.08,1.08,0,0,0,.53,0c1.81-.57,3.84-.82,5.12-2.25A14.8,14.8,0,0,0,27.37,5.1,17.88,17.88,0,0,0,29.91,0"/><path class="cls-2" d="M26.23,9.5a6,6,0,0,1-1.18,1.07l1.37-1a9.12,9.12,0,0,0,.79-.6,3.83,3.83,0,0,0,.86-1c.15-.27.5-.94.34-1.23-.36.45-.63,1-1,1.42S26.64,9.06,26.23,9.5Z"/><path class="cls-2" d="M14,11.55a10.1,10.1,0,0,1-3.28,1c0,.08.11.11.22.11a12.19,12.19,0,0,0,4.78-1.31,1.18,1.18,0,0,0,.52-.34q-1.48.28-2.94.69"/><path class="cls-2" d="M18.67,10.66a10,10,0,0,1-3.08,1.54c0,.08.13.1.24.08a12.38,12.38,0,0,0,4.52-2,1.17,1.17,0,0,0,.46-.41c-.95.34-1.88.72-2.8,1.13"/><path class="cls-2" d="M24.72,8.47a9.25,9.25,0,0,1-3.53,2c0,.12.16.15.29.14,1.94-.19,3.64-1.38,5.21-2.53a1.36,1.36,0,0,0,.51-.56A33.11,33.11,0,0,0,24,8.85"/><path class="cls-2" d="M21.17,10.9A10.12,10.12,0,0,1,17.91,12c0,.08.11.11.22.11a12.33,12.33,0,0,0,4.76-1.39,1.24,1.24,0,0,0,.52-.34c-1,.2-2,.45-2.93.73"/><path class="cls-3" d="M27.12,10.6c-.11.13-.13.25,0,.35a4.37,4.37,0,0,0-2.82,2.27,3.61,3.61,0,0,1-.44.22,2.91,2.91,0,0,1-1.42.24c-.85-.07-1.68-.59-2.5-.39a4.73,4.73,0,0,0-1.62,1.15A8.36,8.36,0,0,1,15,15.83a8.8,8.8,0,0,1-2.27.4c-1.54,0-3.07-.82-4.55-.42a.89.89,0,0,1-.64,0,2,2,0,0,0-.31-.2c-.19-.06-.37.08-.52.2a3.76,3.76,0,0,1-2.14,1,1.83,1.83,0,0,1-1.86-1.2c-.07-.23-.08-.49-.27-.64s-.55-.09-.84-.07a1.51,1.51,0,0,1-.52-.11,1.47,1.47,0,0,1-1-.73,1.23,1.23,0,0,1,1-1.76,3.76,3.76,0,0,1,.33-2.65C2,8.42,3.36,7.4,4.66,7.77A1,1,0,0,1,5,7.92a1.89,1.89,0,0,1,.34.4,2.23,2.23,0,0,0,2.53.74A2.91,2.91,0,0,1,9,8.69c.71,0,1.14.82,1.82,1a4.65,4.65,0,0,1,1,.17,1.34,1.34,0,0,1,.56,1.22,2.65,2.65,0,0,0,.21,1.37,1.89,1.89,0,0,0,1.69.7,2.1,2.1,0,0,0,1.84-.71c.25-.4.25-.89.47-1.3s.83-.69,1.11-.32a1.75,1.75,0,0,1,.17.47.9.9,0,0,0,.71.55c-.14-.4.32-.81.76-.81a3.92,3.92,0,0,1,1.24.32,4,4,0,0,0,3.26-.65,1,1,0,0,0,.34-.35,1.14,1.14,0,0,0,0-.58,1.24,1.24,0,0,1,.32-1,.59.59,0,0,1,.94.19,1.73,1.73,0,0,1,.45-.28c.64-.23.64-.23,1.13,0a3.2,3.2,0,0,1,.64.28l.37.21a1.06,1.06,0,0,0,.1-.12.76.76,0,0,0,.16.11,0,0,0,0,1,0,0C28.59,9.67,27.45,10.2,27.12,10.6Z"/><path class="cls-4" d="M.92,11.71a.8.8,0,0,0,.34.75,2.26,2.26,0,0,0,.8.33,3.14,3.14,0,0,0,2.28-.06,3.7,3.7,0,0,0,.92-.85,2.08,2.08,0,0,0,2.35,1.44A1.09,1.09,0,0,1,7,14a3.39,3.39,0,0,1-.9.22l-2.69.39a4.45,4.45,0,0,1-1.26.06,1.53,1.53,0,0,1-1.07-.58,2.33,2.33,0,0,1-.15-1.82"/><path class="cls-4" d="M7,15.52a1,1,0,0,1,.52-.95,1.93,1.93,0,0,1,1.11-.22c1.1.06,2.16.59,3.24.45a26.25,26.25,0,0,1,2.57-.67c.44,0,.88.12,1.32.15A3.2,3.2,0,0,0,17.29,14c.24-.12.55-.27.77-.1a.44.44,0,0,1,.1.51,1,1,0,0,1-.36.42,4.13,4.13,0,0,1-1.12.63"/><path class="cls-4" d="M23,12.66a2.67,2.67,0,0,0,1-.66,4.57,4.57,0,0,1,1.49-.76,1.17,1.17,0,0,1-.09,1.14,2.54,2.54,0,0,1-.87.79,6.2,6.2,0,0,1-2.47.84c-.52.06-2.27-.2-1.47-1S22.19,12.84,23,12.66Z"/><path class="cls-4" d="M10,12.73a.38.38,0,0,1-.33.34.79.79,0,0,1-.49-.13,1.64,1.64,0,0,1-.8-1.38A1.73,1.73,0,0,0,10,12.73Z"/></g></g></svg>